<?xml version="1.0" encoding="utf-8"?>
<!-- Generator: Adobe Illustrator 19.2.0, SVG Export Plug-In . SVG Version: 6.00 Build 0)  -->
<svg version="1.1" id="Layer_1" xmlns="http://www.w3.org/2000/svg" xmlns:xlink="http://www.w3.org/1999/xlink" x="0px" y="0px"
	 viewBox="0 0 127 127" style="enable-background:new 0 0 127 127;" xml:space="preserve">
<style type="text/css">
	.st0{fill:#ECD77D;}
	.st1{fill:none;stroke:#E2B80A;stroke-width:2;}
	.st2{fill:none;stroke:#E2B80A;stroke-width:2;stroke-linecap:round;stroke-linejoin:round;}
</style>
<g id="PowerChain">
	<g id="Dashboard_my-version" transform="translate(-785.000000, -139.000000)">
		<g id="Page-1" transform="translate(786.000000, 140.000000)">
			<path id="Fill-1" class="st0" d="M53.7,92c0,3.9-3.2,7-7,7c-3.9,0-7-3.2-7-7s3.2-7,7-7C50.5,84.9,53.7,88.1,53.7,92"/>
			<path id="Fill-3" class="st0" d="M86.3,92c0,3.9-3.2,7-7,7c-3.9,0-7-3.2-7-7s3.2-7,7-7C83.1,84.9,86.3,88.1,86.3,92"/>
			<path id="Stroke-5" class="st1" d="M125,62.5C125,97,97,125,62.5,125S0,97,0,62.5S28,0,62.5,0S125,28,125,62.5z"/>
			<path id="Stroke-7" class="st1" d="M43.7,45h-18"/>
			<polyline id="Stroke-9" class="st1" points="14.7,39 23.7,39 33.3,79.9 89.7,79.9 102.7,45 81.7,45 			"/>
			<path id="Stroke-11" class="st1" d="M53.7,92c0,3.9-3.2,7-7,7c-3.9,0-7-3.2-7-7s3.2-7,7-7C50.5,84.9,53.7,88.1,53.7,92z"/>
			<path id="Stroke-13" class="st1" d="M86.3,92c0,3.9-3.2,7-7,7c-3.9,0-7-3.2-7-7s3.2-7,7-7C83.1,84.9,86.3,88.1,86.3,92z"/>
			<polyline id="Stroke-15" class="st1" points="33.3,79.8 36.7,92 38.7,92 			"/>
			<path id="Stroke-17" class="st1" d="M54.7,92h17"/>
			<polygon id="Fill-19" class="st0" points="73.4,41.7 56.4,65.9 59,45 52.7,45 69.6,21 67.1,41.7 			"/>
			<polygon id="Stroke-21" class="st2" points="73.9,41.8 56.4,65.9 59,45 52,45 69.6,21 67.6,41.8 			"/>
			<path id="Stroke-23" class="st1" d="M56.8,60.3c-6.9-2.5-11.8-9.1-11.8-16.9c0-9.9,8-18,18-18c0.9,0,1.9,0.1,2.8,0.2"/>
			<path id="Stroke-25" class="st1" d="M69.3,26.6C76.1,29.1,81,35.7,81,43.5c0,9.9-8,18-18,18c-0.9,0-1.9-0.1-2.8-0.2"/>
		</g>
	</g>
</g>
</svg>
