<?xml version="1.0" encoding="utf-8"?>
<!-- Generator: Adobe Illustrator 19.2.0, SVG Export Plug-In . SVG Version: 6.00 Build 0)  -->
<svg version="1.1" xmlns="http://www.w3.org/2000/svg" xmlns:xlink="http://www.w3.org/1999/xlink" x="0px" y="0px"
	 viewBox="0 0 127 127" style="enable-background:new 0 0 127 127;" xml:space="preserve">
<style type="text/css">
	.st0{fill:#EFD04D;}
	.st1{fill:none;stroke:#E2B80A;stroke-width:2;}
</style>
<g id="Layer_1">
	<g id="PowerChain">
		<g id="Dashboard_my-version" transform="translate(-450.000000, -137.000000)">
			<g id="My-Producer" transform="translate(361.000000, 104.000000)">
				<g id="Page-1" transform="translate(90.000000, 34.000000)">
					<polygon id="Fill-1" class="st0" points="58.7,75 66,75 66.7,83 58,83 					"/>
					<g id="Group-50">
						<path id="Fill-2" class="st0" d="M87.4,77.6c2.1-2.1,4.2-3.8,5.7-4.6c0.2-0.1,0.3,0,0.4,0.1s0.2,0.2,0.1,0.4
							c-0.8,1.5-2.5,3.6-4.6,5.7c-0.9,0.9-1.9,1.8-2.9,2.6c-0.2-0.3-0.3-0.5-0.6-0.7c-0.2-0.2-0.5-0.4-0.7-0.6
							C85.6,79.5,86.5,78.6,87.4,77.6"/>
						<path id="Fill-4" class="st0" d="M76.5,79.2c-2.1-2.1-3.8-4.2-4.6-5.7c-0.1-0.2,0-0.3,0.1-0.4c0,0,0.2-0.2,0.4-0.1
							c1.5,0.8,3.6,2.5,5.7,4.6c0.9,0.9,1.8,1.9,2.6,2.9c-0.3,0.2-0.5,0.3-0.7,0.6c-0.2,0.2-0.4,0.5-0.6,0.7
							C78.4,81,77.4,80.1,76.5,79.2"/>
						<path id="Fill-6" class="st0" d="M78.1,90.1c-2.1,2.1-4.2,3.8-5.7,4.6c-0.2,0.1-0.3,0-0.4-0.1c-0.1-0.1-0.2-0.2-0.1-0.4
							c0.8-1.5,2.5-3.6,4.6-5.7c0.9-0.9,1.9-1.8,2.9-2.6c0.2,0.2,0.3,0.5,0.5,0.7c0.2,0.2,0.5,0.4,0.7,0.6
							C79.9,88.2,79,89.1,78.1,90.1"/>
						<path id="Fill-8" class="st0" d="M93.5,94.6c0,0-0.2,0.2-0.4,0.1c-1.5-0.8-3.6-2.5-5.7-4.6c-0.9-0.9-1.8-1.9-2.7-2.9
							c0.3-0.2,0.5-0.3,0.8-0.6c0.2-0.2,0.4-0.5,0.6-0.7c1,0.8,2,1.7,2.9,2.7c2.1,2.1,3.8,4.2,4.6,5.7
							C93.7,94.4,93.5,94.6,93.5,94.6"/>
						<path id="Fill-10" class="st0" d="M45.7,77.5c2-2,4-3.6,5.4-4.4c0.2-0.1,0.3,0,0.4,0.1c0.1,0.1,0.2,0.2,0.1,0.4
							C50.8,75,49.2,77,47.2,79c-0.9,0.9-1.8,1.7-2.7,2.5c-0.2-0.2-0.3-0.5-0.5-0.7c-0.2-0.2-0.4-0.4-0.7-0.5
							C44,79.3,44.9,78.4,45.7,77.5"/>
						<path id="Fill-12" class="st0" d="M35.4,79c-2-2-3.6-4-4.3-5.4c-0.1-0.2,0-0.3,0.1-0.4c0,0,0.2-0.2,0.4-0.1
							c1.4,0.8,3.4,2.4,5.4,4.3c0.9,0.9,1.7,1.8,2.5,2.7c-0.2,0.2-0.5,0.3-0.7,0.5c-0.2,0.2-0.4,0.5-0.5,0.7
							C37.2,80.7,36.3,79.8,35.4,79"/>
						<path id="Fill-14" class="st0" d="M36.9,89.3c-2,2-4,3.6-5.4,4.4c-0.2,0.1-0.3,0-0.3-0.1c-0.1-0.1-0.2-0.2-0.1-0.4
							c0.8-1.4,2.4-3.4,4.4-5.4c0.9-0.9,1.8-1.7,2.7-2.5c0.1,0.2,0.3,0.4,0.5,0.6c0.2,0.2,0.5,0.4,0.7,0.5
							C38.6,87.5,37.7,88.4,36.9,89.3"/>
						<path id="Fill-16" class="st0" d="M51.5,93.6c0,0-0.2,0.2-0.4,0.1c-1.4-0.8-3.4-2.4-5.4-4.4c-0.9-0.9-1.7-1.8-2.5-2.8
							c0.3-0.2,0.5-0.3,0.7-0.6c0.2-0.2,0.4-0.5,0.5-0.7c0.9,0.8,1.9,1.6,2.8,2.5c2,2,3.6,4,4.4,5.4C51.7,93.4,51.5,93.6,51.5,93.6"
							/>
						<path id="Fill-18" class="st0" d="M62.5,49.5c-2.3,0-4.1-1.8-4.1-4.1c0-2.3,1.9-4.1,4.1-4.1c2.3,0,4.1,1.8,4.1,4.1
							C66.6,47.7,64.8,49.5,62.5,49.5 M88.7,68.5c-1.8-3.4-5.7-8.3-10.8-13.3c-3.5-3.5-7.3-6.7-10.5-9c0-0.3,0-0.6,0-1
							c3.2-2.3,6.9-5.5,10.5-9c5-5,9-9.9,10.8-13.2c1.1-2-1.2-4.2-3.2-3.2c-3.4,1.8-8.3,5.7-13.4,10.7c-3.5,3.5-6.7,7.1-9.1,10.3
							c-0.4,0-0.7,0-1,0c-2.4-3.2-5.6-6.8-9.1-10.3c-5-5-10-8.9-13.4-10.7c-2-1.1-4.3,1.2-3.2,3.2c1.8,3.4,5.7,8.3,10.8,13.3
							c3.5,3.5,7.2,6.7,10.5,9c0,0.4,0,0.8,0,1.1c-3.2,2.3-6.9,5.5-10.4,9c-5,5-9,9.9-10.8,13.2c-1.1,2,1.2,4.2,3.2,3.1
							c3.4-1.8,8.3-5.7,13.4-10.7c3.5-3.5,6.8-7.2,9.1-10.4c0.3,0,0.6,0,0.9,0c2.4,3.2,5.6,6.9,9.2,10.5c5.1,5,10,8.9,13.4,10.7
							C87.5,72.8,89.8,70.5,88.7,68.5"/>
						<polyline id="Stroke-20" class="st1" points="83.7,86.9 84.6,102.8 80.8,102.8 82,86.9 						"/>
						<path id="Stroke-22" class="st1" d="M93.9,93.4c-0.8-1.4-2.4-3.6-4.6-5.7c-1-1-2-1.9-3-2.7c0.3-0.9,0.3-1.8,0-2.7
							c1-0.8,2-1.7,3-2.7c2.2-2.2,3.8-4.3,4.6-5.7c0.5-0.8-0.5-1.8-1.4-1.4c-1.4,0.8-3.6,2.5-5.7,4.6c-1,1-1.9,2-2.7,3
							c-0.9-0.3-1.9-0.3-2.8,0c-0.8-1-1.7-2-2.7-3c-2.2-2.2-4.3-3.8-5.7-4.6c-0.8-0.5-1.8,0.5-1.4,1.4c0.8,1.4,2.4,3.6,4.6,5.7
							c1,1,2,1.9,3,2.7c-0.3,0.9-0.3,1.9,0,2.8c-1,0.8-2,1.7-3,2.7c-2.2,2.2-3.8,4.3-4.6,5.7c-0.5,0.8,0.5,1.8,1.3,1.3
							c1.4-0.8,3.6-2.5,5.7-4.6c1-1,1.9-2,2.7-3c0.9,0.3,1.8,0.3,2.7,0c0.8,1,1.7,2,2.8,3c2.2,2.2,4.3,3.8,5.7,4.6
							C93.3,95.3,94.3,94.3,93.9,93.4z"/>
						<path id="Stroke-24" class="st1" d="M85.4,80.9c1.5,1.5,1.5,3.9,0,5.4s-3.9,1.5-5.4,0s-1.5-3.9,0-5.4
							C81.5,79.4,83.9,79.4,85.4,80.9z"/>
						<path id="Stroke-26" class="st1" d="M88.3,68.2c-1.8-3.3-5.6-8.2-10.6-13.2c-3.5-3.5-7.2-6.7-10.3-9c0-0.3,0-0.6,0-0.9
							c3.1-2.3,6.8-5.5,10.3-8.9c5-5,8.8-9.8,10.6-13.2c1.1-2-1.2-4.2-3.1-3.1c-3.3,1.8-8.2,5.7-13.2,10.6
							c-3.5,3.5-6.6,7.1-8.9,10.2c-0.3,0-0.7,0-1,0c-2.3-3.1-5.5-6.8-8.9-10.3c-5-5-9.8-8.8-13.2-10.6c-2-1-4.2,1.2-3.2,3.2
							c1.8,3.3,5.6,8.2,10.6,13.2c3.5,3.5,7.1,6.6,10.3,8.9c0,0.4,0,0.7,0,1.1c-3.1,2.3-6.7,5.4-10.2,8.9c-5,5-8.8,9.8-10.6,13.2
							c-1.1,1.9,1.2,4.2,3.1,3.1c3.3-1.8,8.2-5.7,13.2-10.6c3.5-3.5,6.6-7.1,9-10.3c0.3,0,0.6,0,0.8,0c2.3,3.2,5.5,6.9,9,10.4
							c5,5,9.9,8.8,13.2,10.6C87.1,72.4,89.3,70.1,88.3,68.2z"/>
						<polyline id="Stroke-28" class="st1" points="63.7,49.1 67,89.8 58,89.8 61.3,49.1 						"/>
						<path id="Stroke-30" class="st1" d="M65.9,42c1.9,1.9,1.9,5,0,7s-5,1.9-7,0s-1.9-5,0-7C60.9,40.1,64,40.1,65.9,42z"/>
						<polyline id="Stroke-32" class="st1" points="42.2,86.9 43.2,102.8 39.3,102.8 40.6,86.9 						"/>
						<path id="Stroke-34" class="st1" d="M52.4,93.4c-0.8-1.4-2.4-3.6-4.6-5.7c-1-1-2-1.9-3-2.7c0.3-0.9,0.3-1.8,0-2.7
							c1-0.8,2-1.7,3-2.7c2.2-2.2,3.8-4.3,4.6-5.7c0.5-0.8-0.5-1.8-1.4-1.4c-1.4,0.8-3.6,2.5-5.7,4.6c-1,1-1.9,2-2.7,3
							c-0.9-0.3-1.9-0.3-2.8,0c-0.8-1-1.7-2-2.7-3c-2.2-2.2-4.3-3.8-5.7-4.6c-0.8-0.5-1.8,0.5-1.4,1.4c0.8,1.4,2.4,3.6,4.6,5.7
							c1,1,2,1.9,3,2.7c-0.3,0.9-0.3,1.9,0,2.8c-1,0.8-2,1.7-3,2.7c-2.2,2.2-3.8,4.3-4.6,5.7c-0.5,0.8,0.5,1.8,1.3,1.3
							c1.4-0.8,3.5-2.5,5.7-4.6c1-1,1.9-2,2.7-3c0.9,0.3,1.8,0.3,2.7,0c0.8,1,1.7,2,2.8,3c2.2,2.2,4.3,3.8,5.7,4.6
							C51.9,95.3,52.9,94.3,52.4,93.4z"/>
						<path id="Stroke-36" class="st1" d="M43.9,80.9c1.5,1.5,1.5,3.9,0,5.4s-3.9,1.5-5.4,0c-1.5-1.5-1.5-3.9,0-5.4
							C40,79.4,42.4,79.4,43.9,80.9z"/>
						<path id="Stroke-38" class="st1" d="M59.8,67.2h5.4"/>
						<path id="Stroke-40" class="st1" d="M59.1,75.4h6.8"/>
						<path id="Stroke-42" class="st1" d="M58.4,82.8h8.1"/>
						<path id="Stroke-44" class="st1" d="M40.1,97.7h2.7"/>
						<path id="Stroke-46" class="st1" d="M81.5,97.7h2.7"/>
						<path id="Stroke-48" class="st1" d="M125,62.5C125,97,97,125,62.5,125S0,97,0,62.5S28,0,62.5,0S125,28,125,62.5z"/>
					</g>
				</g>
			</g>
		</g>
	</g>
</g>
<g id="Layer_2">
</g>
</svg>
