<?xml version="1.0" standalone="no"?>
<!DOCTYPE svg PUBLIC "-//W3C//DTD SVG 20010904//EN"
 "http://www.w3.org/TR/2001/REC-SVG-20010904/DTD/svg10.dtd">
<svg version="1.0" xmlns="http://www.w3.org/2000/svg"
 width="260.000000pt" height="260.000000pt" viewBox="0 0 260.000000 260.000000"
 preserveAspectRatio="xMidYMid meet">
    <metadata>
        Created by potrace 1.11, written by Peter Selinger 2001-2013
    </metadata>
    <g transform="translate(0.000000,260.000000) scale(0.100000,-0.100000)"
        fill="#000000" stroke="none">
        <path d="M607 2364 c-59 -30 -326 -297 -352 -351 -24 -49 -25 -136 -2 -183 10
        -19 71 -90 136 -157 88 -91 127 -139 149 -185 27 -57 33 -78 46 -158 6 -38
        -12 -138 -34 -184 -29 -63 -76 -125 -180 -233 -103 -107 -131 -153 -137 -223
        -6 -75 25 -123 191 -290 249 -250 278 -251 516 -19 154 151 226 194 339 205
        136 14 220 -30 410 -214 109 -106 150 -132 214 -140 68 -7 115 20 233 136 173
        171 211 218 229 278 14 50 14 56 -4 104 -33 87 -312 381 -379 400 -102 28
        -146 6 -317 -158 -50 -48 -107 -98 -125 -112 -147 -108 -348 -96 -500 29 -117
        96 -186 174 -210 236 -28 74 -36 209 -15 277 25 85 26 86 209 279 88 94 118
        150 118 219 0 84 -29 129 -184 284 -192 190 -245 215 -351 160z"/>
        <path d="M1860 2161 c-111 -36 -173 -120 -172 -233 1 -175 185 -283 343 -200
        209 109 140 425 -96 438 -27 2 -61 0 -75 -5z"/>
    </g>
</svg>
